<svg width="106" height="40" fill="none" xmlns="http://www.w3.org/2000/svg"><path d="M22.676 30.945c-2.168.82-4.63 1.23-7.383 1.23-9.023 0-13.535-4.364-13.535-13.095 0-8.262 4.512-12.392 13.535-12.392 2.754 0 5.215.41 7.383 1.23v4.219c-2.168-.938-4.512-1.407-7.031-1.407-6.036 0-9.053 2.784-9.053 8.35 0 6.035 3.017 9.053 9.053 9.053 2.52 0 4.863-.469 7.03-1.406v4.218zM26.63 32V6.863h4.658v9.035c1.453-1.57 3.31-2.355 5.572-2.355 4.371 0 6.557 2.273 6.557 6.82V32H38.76V20.363c0-2.039-1.014-3.058-3.041-3.058-1.512 0-2.989.603-4.43 1.81V32h-4.658zm24.978-9.299c0 3.856 1.494 5.783 4.483 5.783 2.988 0 4.482-1.927 4.482-5.783 0-3.762-1.494-5.642-4.482-5.642-2.989 0-4.483 1.88-4.483 5.642zm-4.658.07c0-6.187 3.047-9.28 9.14-9.28 6.094 0 9.141 3.093 9.141 9.28 0 6.176-3.047 9.264-9.14 9.264-6.07 0-9.117-3.088-9.14-9.263zm20.215-9.228h4.693l2.391 12.85 4.272-12.85h3.99l4.605 12.85 2.074-12.85h4.852L89.227 32H84.85l-4.342-13.096L76.113 32h-4.447l-4.5-18.457z" fill="#068C52"/><path stroke="#000" d="M92.295 34.162l13.136-27.939"/><path stroke="#068C52" d="M90.542 31.728L103.678 3.79"/></svg>